<svg width="72" height="90" viewBox="0 0 72 90" fill="none" xmlns="http://www.w3.org/2000/svg">
<path d="M31.8779 35.3589L60.5804 30.0243L60.1222 42.7449L31.8779 35.3589Z" fill="#3B5998"/>
<path d="M20.5339 38.8983L49.1991 34.6093L48.8156 45.2414L20.5339 38.8983Z" fill="#3B5998"/>
<path d="M2.71 85C2.59 85 2.482 84.958 2.386 84.874C2.302 84.778 2.26 84.67 2.26 84.55V72.85C2.26 72.718 2.302 72.61 2.386 72.526C2.482 72.442 2.59 72.4 2.71 72.4H11.116C11.248 72.4 11.356 72.442 11.44 72.526C11.524 72.61 11.566 72.718 11.566 72.85V74.542C11.566 74.662 11.524 74.77 11.44 74.866C11.356 74.95 11.248 74.992 11.116 74.992H5.374V77.422H10.72C10.852 77.422 10.96 77.47 11.044 77.566C11.128 77.65 11.17 77.758 11.17 77.89V79.456C11.17 79.576 11.128 79.684 11.044 79.78C10.96 79.864 10.852 79.906 10.72 79.906H5.374V82.408H11.26C11.392 82.408 11.5 82.45 11.584 82.534C11.668 82.618 11.71 82.726 11.71 82.858V84.55C11.71 84.67 11.668 84.778 11.584 84.874C11.5 84.958 11.392 85 11.26 85H2.71ZM14.0081 85C13.8881 85 13.7801 84.958 13.6841 84.874C13.6001 84.778 13.5581 84.67 13.5581 84.55V72.67C13.5581 72.538 13.6001 72.43 13.6841 72.346C13.7801 72.262 13.8881 72.22 14.0081 72.22H16.1321C16.2641 72.22 16.3721 72.262 16.4561 72.346C16.5401 72.43 16.5821 72.538 16.5821 72.67V84.55C16.5821 84.682 16.5401 84.79 16.4561 84.874C16.3721 84.958 16.2641 85 16.1321 85H14.0081ZM23.0285 85.18C21.5885 85.18 20.4545 84.79 19.6265 84.01C18.7985 83.23 18.3665 82.096 18.3305 80.608V79.978C18.3785 78.562 18.8165 77.458 19.6445 76.666C20.4845 75.862 21.6065 75.46 23.0105 75.46C24.0305 75.46 24.8885 75.67 25.5845 76.09C26.2925 76.498 26.8205 77.062 27.1685 77.782C27.5285 78.502 27.7085 79.33 27.7085 80.266V80.698C27.7085 80.818 27.6665 80.926 27.5825 81.022C27.4985 81.106 27.3905 81.148 27.2585 81.148H21.4985V81.274C21.5225 81.838 21.6605 82.294 21.9125 82.642C22.1645 82.99 22.5305 83.164 23.0105 83.164C23.3105 83.164 23.5565 83.104 23.7485 82.984C23.9405 82.852 24.1145 82.696 24.2705 82.516C24.3785 82.384 24.4625 82.306 24.5225 82.282C24.5945 82.246 24.7025 82.228 24.8465 82.228H27.0785C27.1865 82.228 27.2765 82.264 27.3485 82.336C27.4325 82.396 27.4745 82.48 27.4745 82.588C27.4745 82.9 27.2945 83.26 26.9345 83.668C26.5865 84.076 26.0765 84.43 25.4045 84.73C24.7325 85.03 23.9405 85.18 23.0285 85.18ZM24.5405 79.366V79.33C24.5405 78.742 24.4025 78.28 24.1265 77.944C23.8625 77.596 23.4905 77.422 23.0105 77.422C22.5425 77.422 22.1705 77.596 21.8945 77.944C21.6305 78.28 21.4985 78.742 21.4985 79.33V79.366H24.5405ZM33.698 85.18C32.342 85.18 31.244 84.82 30.404 84.1C29.564 83.368 29.114 82.354 29.054 81.058L29.036 80.338L29.054 79.6C29.102 78.304 29.546 77.29 30.386 76.558C31.238 75.826 32.342 75.46 33.698 75.46C34.718 75.46 35.576 75.646 36.272 76.018C36.98 76.378 37.502 76.816 37.838 77.332C38.186 77.836 38.372 78.298 38.396 78.718C38.408 78.838 38.366 78.946 38.27 79.042C38.186 79.126 38.078 79.168 37.946 79.168H35.66C35.528 79.168 35.426 79.138 35.354 79.078C35.282 79.018 35.216 78.928 35.156 78.808C35.012 78.436 34.826 78.172 34.598 78.016C34.382 77.86 34.1 77.782 33.752 77.782C32.768 77.782 32.258 78.418 32.222 79.69L32.204 80.374L32.222 80.968C32.246 81.616 32.384 82.096 32.636 82.408C32.9 82.708 33.272 82.858 33.752 82.858C34.124 82.858 34.418 82.78 34.634 82.624C34.85 82.468 35.024 82.204 35.156 81.832C35.216 81.712 35.282 81.622 35.354 81.562C35.426 81.502 35.528 81.472 35.66 81.472H37.946C38.066 81.472 38.168 81.514 38.252 81.598C38.348 81.67 38.396 81.766 38.396 81.886C38.396 82.27 38.228 82.72 37.892 83.236C37.568 83.752 37.052 84.208 36.344 84.604C35.636 84.988 34.754 85.18 33.698 85.18ZM44.8012 85C42.3172 85 41.0752 83.818 41.0752 81.454V77.998H39.6712C39.5392 77.998 39.4252 77.956 39.3292 77.872C39.2452 77.788 39.2032 77.68 39.2032 77.548V76.09C39.2032 75.958 39.2452 75.85 39.3292 75.766C39.4252 75.682 39.5392 75.64 39.6712 75.64H41.0752V72.67C41.0752 72.538 41.1172 72.43 41.2012 72.346C41.2972 72.262 41.4052 72.22 41.5252 72.22H43.6132C43.7452 72.22 43.8532 72.262 43.9372 72.346C44.0212 72.43 44.0632 72.538 44.0632 72.67V75.64H46.3132C46.4452 75.64 46.5532 75.682 46.6372 75.766C46.7332 75.85 46.7812 75.958 46.7812 76.09V77.548C46.7812 77.68 46.7332 77.788 46.6372 77.872C46.5532 77.956 46.4452 77.998 46.3132 77.998H44.0632V81.202C44.0632 82.09 44.4052 82.534 45.0892 82.534H46.4752C46.6072 82.534 46.7152 82.576 46.7992 82.66C46.8832 82.744 46.9252 82.852 46.9252 82.984V84.55C46.9252 84.67 46.8832 84.778 46.7992 84.874C46.7152 84.958 46.6072 85 46.4752 85H44.8012ZM48.8655 85C48.7335 85 48.6255 84.958 48.5415 84.874C48.4575 84.79 48.4155 84.682 48.4155 84.55V76.09C48.4155 75.958 48.4575 75.85 48.5415 75.766C48.6255 75.682 48.7335 75.64 48.8655 75.64H50.9355C51.0675 75.64 51.1755 75.688 51.2595 75.784C51.3555 75.868 51.4035 75.97 51.4035 76.09V76.81C52.0635 76.03 52.9515 75.64 54.0675 75.64H54.8595C54.9915 75.64 55.0995 75.682 55.1835 75.766C55.2675 75.85 55.3095 75.958 55.3095 76.09V77.944C55.3095 78.064 55.2675 78.172 55.1835 78.268C55.0995 78.352 54.9915 78.394 54.8595 78.394H53.1135C52.6215 78.394 52.2375 78.532 51.9615 78.808C51.6975 79.072 51.5655 79.45 51.5655 79.942V84.55C51.5655 84.682 51.5175 84.79 51.4215 84.874C51.3375 84.958 51.2295 85 51.0975 85H48.8655ZM57.0213 74.29C56.8893 74.29 56.7813 74.248 56.6973 74.164C56.6133 74.08 56.5713 73.972 56.5713 73.84V72.22C56.5713 72.088 56.6133 71.98 56.6973 71.896C56.7813 71.812 56.8893 71.77 57.0213 71.77H59.1813C59.3133 71.77 59.4213 71.812 59.5053 71.896C59.5893 71.98 59.6313 72.088 59.6313 72.22V73.84C59.6313 73.972 59.5893 74.08 59.5053 74.164C59.4213 74.248 59.3133 74.29 59.1813 74.29H57.0213ZM57.0393 85C56.9073 85 56.7993 84.958 56.7153 84.874C56.6313 84.79 56.5893 84.682 56.5893 84.55V76.09C56.5893 75.958 56.6313 75.85 56.7153 75.766C56.7993 75.682 56.9073 75.64 57.0393 75.64H59.1633C59.2953 75.64 59.4033 75.682 59.4873 75.766C59.5713 75.85 59.6133 75.958 59.6133 76.09V84.55C59.6133 84.67 59.5713 84.778 59.4873 84.874C59.4033 84.958 59.2953 85 59.1633 85H57.0393ZM66.0417 85.18C64.6857 85.18 63.5877 84.82 62.7477 84.1C61.9077 83.368 61.4577 82.354 61.3977 81.058L61.3797 80.338L61.3977 79.6C61.4457 78.304 61.8897 77.29 62.7297 76.558C63.5817 75.826 64.6857 75.46 66.0417 75.46C67.0617 75.46 67.9197 75.646 68.6157 76.018C69.3237 76.378 69.8457 76.816 70.1817 77.332C70.5297 77.836 70.7157 78.298 70.7397 78.718C70.7517 78.838 70.7097 78.946 70.6137 79.042C70.5297 79.126 70.4217 79.168 70.2897 79.168H68.0037C67.8717 79.168 67.7697 79.138 67.6977 79.078C67.6257 79.018 67.5597 78.928 67.4997 78.808C67.3557 78.436 67.1697 78.172 66.9417 78.016C66.7257 77.86 66.4437 77.782 66.0957 77.782C65.1117 77.782 64.6017 78.418 64.5657 79.69L64.5477 80.374L64.5657 80.968C64.5897 81.616 64.7277 82.096 64.9797 82.408C65.2437 82.708 65.6157 82.858 66.0957 82.858C66.4677 82.858 66.7617 82.78 66.9777 82.624C67.1937 82.468 67.3677 82.204 67.4997 81.832C67.5597 81.712 67.6257 81.622 67.6977 81.562C67.7697 81.502 67.8717 81.472 68.0037 81.472H70.2897C70.4097 81.472 70.5117 81.514 70.5957 81.598C70.6917 81.67 70.7397 81.766 70.7397 81.886C70.7397 82.27 70.5717 82.72 70.2357 83.236C69.9117 83.752 69.3957 84.208 68.6877 84.604C67.9797 84.988 67.0977 85.18 66.0417 85.18Z" fill="#3B5998"/>
<path d="M65.0954 44.0414C66.9028 37.0399 66.1205 29.6212 62.8926 23.1507C59.6646 16.6802 54.2082 11.5933 47.5276 8.82622C40.847 6.05916 33.3918 5.79816 26.534 8.09125C19.6762 10.3843 13.8775 15.0772 10.2049 21.3062C6.53239 27.5351 5.23324 34.8809 6.54659 41.9916C7.85993 49.1023 11.6974 55.4994 17.3527 60.0055C23.008 64.5116 30.1005 66.8235 37.3249 66.5156C44.5494 66.2077 51.4195 63.3008 56.6709 58.3299L49.1704 50.4061C45.8289 53.5691 41.4573 55.4188 36.8604 55.6147C32.2634 55.8106 27.7504 54.3396 24.1519 51.4723C20.5534 48.605 18.1116 44.5345 17.2759 40.0099C16.4402 35.4853 17.2669 30.8111 19.6037 26.8476C21.9406 22.8841 25.6304 19.898 29.994 18.4389C34.3577 16.9798 39.1015 17.1459 43.3524 18.9066C47.6033 20.6673 51.0753 23.9041 53.1292 28.0213C55.1832 32.1386 55.6809 36.8591 54.5309 41.3142L65.0954 44.0414Z" fill="#3B5998"/>
</svg>
